<?xml version="1.0" encoding="utf-8"?>
<svg viewBox="0 0 500 500" xmlns="http://www.w3.org/2000/svg" xmlns:bx="https://boxy-svg.com">
  <path style="fill: rgb(216, 216, 216); stroke: rgb(255, 255, 255);" transform="matrix(0.787627, 0, 0, 0.74512, -306.215271, -88.462067)" d="M 688.668 188.4 L 727.332 188.4 L 737.469 259.936 A 195.3 195.3 0 0 1 765.217 266.269 L 805.389 206.216 L 840.223 222.991 L 818.318 291.842 A 195.3 195.3 0 0 1 840.57 309.587 L 902.82 272.911 L 926.926 303.139 L 877.317 355.666 A 195.3 195.3 0 0 1 889.666 381.309 L 961.664 375.274 L 970.268 412.968 L 902.781 438.769 A 195.3 195.3 0 0 1 902.781 467.231 L 970.268 493.032 L 961.664 530.726 L 889.666 524.691 A 195.3 195.3 0 0 1 877.317 550.334 L 926.926 602.861 L 902.82 633.089 L 840.57 596.413 A 195.3 195.3 0 0 1 818.318 614.158 L 840.223 683.009 L 805.389 699.784 L 765.217 639.731 A 195.3 195.3 0 0 1 737.469 646.064 L 727.332 717.6 L 688.668 717.6 L 678.531 646.064 A 195.3 195.3 0 0 1 650.783 639.731 L 610.611 699.784 L 575.777 683.009 L 597.682 614.158 A 195.3 195.3 0 0 1 575.43 596.413 L 513.18 633.089 L 489.074 602.861 L 538.683 550.334 A 195.3 195.3 0 0 1 526.334 524.691 L 454.336 530.726 L 445.732 493.032 L 513.219 467.231 A 195.3 195.3 0 0 1 513.219 438.769 L 445.732 412.968 L 454.336 375.274 L 526.334 381.309 A 195.3 195.3 0 0 1 538.683 355.666 L 489.074 303.139 L 513.18 272.911 L 575.43 309.587 A 195.3 195.3 0 0 1 597.682 291.842 L 575.777 222.991 L 610.611 206.216 L 650.783 266.269 A 195.3 195.3 0 0 1 678.531 259.936 Z M 708 301.8 A 151.2 151.2 0 0 0 708 604.2 A 151.2 151.2 0 0 0 708 301.8" bx:shape="cog 708 453 151.2 195.3 264.6 0.35 14 1@2ee9559a"/>
  <text style="fill: rgb(255, 255, 255); font-family: &quot;TerminessTTF Nerd Font&quot;; font-size: 22.1px; paint-order: fill; stroke: rgb(0, 0, 0); stroke-width: 0.41247px; white-space: pre;" transform="matrix(4.428139, 0, 0, 5.269539, -367.554077, -447.313995)" x="154.546" y="117.544">GTK</text>
  <text style="fill: rgb(255, 255, 255); font-family: &quot;TerminessTTF Nerd Font&quot;; font-size: 144px; font-weight: 500; paint-order: fill; stroke: rgb(0, 0, 0); white-space: pre;" transform="matrix(1.805926, 0, 0, 1.852459, -192.218857, -164.46402)" x="142.732" y="282.158">Py#</text>
</svg>